HIERARCHY
ROOT hip
{
  OFFSET 0 0 0
  CHANNELS 6 Xposition Yposition Zposition Zrotation Yrotation Xrotation
  JOINT abdomen
  {
    OFFSET 0 20.6881 -0.73152
    CHANNELS 3 Zrotation Xrotation Yrotation
    JOINT chest
    {
      OFFSET 0 11.7043 -0.48768
      CHANNELS 3 Zrotation Xrotation Yrotation
      JOINT neck
      {
        OFFSET 0 22.1894 -2.19456
        CHANNELS 3 Zrotation Xrotation Yrotation
        JOINT head
        {
          OFFSET -0.24384 7.07133 1.2192
          CHANNELS 3 Zrotation Xrotation Yrotation
          JOINT leftEye
          {
            OFFSET 4.14528 8.04674 8.04672
            CHANNELS 3 Zrotation Xrotation Yrotation
            End Site
            {
              OFFSET 1 0 0
            }
          }
          JOINT rightEye
          {
            OFFSET -3.6576 8.04674 8.04672
            CHANNELS 3 Zrotation Xrotation Yrotation
            End Site
            {
              OFFSET 1 0 0
            }
          }
        }
      }
      JOINT rCollar
      {
        OFFSET -2.68224 19.2634 -4.8768
        CHANNELS 3 Zrotation Xrotation Yrotation
        JOINT rShldr
        {
          OFFSET -8.77824 -1.95073 1.46304
          CHANNELS 3 Zrotation Xrotation Yrotation
          JOINT rForeArm
          {
            OFFSET -28.1742 -1.7115 0.48768
            CHANNELS 3 Zrotation Xrotation Yrotation
            JOINT rHand
            {
              OFFSET -22.5879 0.773209 7.07136
              CHANNELS 3 Zrotation Xrotation Yrotation
              JOINT rThumb1
              {
                OFFSET -1.2192 -0.487915 3.41376
                CHANNELS 3 Zrotation Xrotation Yrotation
                JOINT rThumb2
                {
                  OFFSET -3.37035 -0.52449 3.41376
                  CHANNELS 3 Zrotation Xrotation Yrotation
                  End Site
                  {
                    OFFSET -1.78271 -1.18214 1.43049
                  }
                }
              }
              JOINT rIndex1
              {
                OFFSET -7.75947 0.938293 5.60832
                CHANNELS 3 Zrotation Xrotation Yrotation
                JOINT rIndex2
                {
                  OFFSET -2.54057 -0.884171 1.56538
                  CHANNELS 3 Zrotation Xrotation Yrotation
                  End Site
                  {
                    OFFSET -1.62519 -0.234802 1.16502
                  }
                }
              }
              JOINT rMid1
              {
                OFFSET -8.24714 1.18213 3.41376
                CHANNELS 3 Zrotation Xrotation Yrotation
                JOINT rMid2
                {
                  OFFSET -3.10165 -0.590103 1.0647
                  CHANNELS 3 Zrotation Xrotation Yrotation
                  End Site
                  {
                    OFFSET -2.48547 -0.328903 0.83742
                  }
                }
              }
              JOINT rRing1
              {
                OFFSET -8.82822 0.546677 1.51678
                CHANNELS 3 Zrotation Xrotation Yrotation
                JOINT rRing2
                {
                  OFFSET -2.60934 -0.819778 -0.0198488
                  CHANNELS 3 Zrotation Xrotation Yrotation
                  End Site
                  {
                    OFFSET -2.33842 -0.294052 0.168128
                  }
                }
              }
              JOINT rPinky1
              {
                OFFSET -8.27202 -0.0477905 -0.4584
                CHANNELS 3 Zrotation Xrotation Yrotation
                JOINT rPinky2
                {
                  OFFSET -1.82734 -0.647385 -0.700984
                  CHANNELS 3 Zrotation Xrotation Yrotation
                  End Site
                  {
                    OFFSET -1.69225 -0.51767 -0.607171
                  }
                }
              }
            }
          }
        }
      }
      JOINT lCollar
      {
        OFFSET 2.68224 19.2634 -4.8768
        CHANNELS 3 Zrotation Xrotation Yrotation
        JOINT lShldr
        {
          OFFSET 8.77824 -1.95073 1.46304
          CHANNELS 3 Zrotation Xrotation Yrotation
          JOINT lForeArm
          {
            OFFSET 28.1742 -1.7115 0.48768
            CHANNELS 3 Zrotation Xrotation Yrotation
            JOINT lHand
            {
              OFFSET 22.5879 0.773209 7.07136
              CHANNELS 3 Zrotation Xrotation Yrotation
              JOINT lThumb1
              {
                OFFSET 1.2192 -0.487915 3.41376
                CHANNELS 3 Zrotation Xrotation Yrotation
                JOINT lThumb2
                {
                  OFFSET 3.37035 -0.52449 3.41376
                  CHANNELS 3 Zrotation Xrotation Yrotation
                  End Site
                  {
                    OFFSET 1.78271 -1.18214 1.43049
                  }
                }
              }
              JOINT lIndex1
              {
                OFFSET 7.75947 0.938293 5.60832
                CHANNELS 3 Zrotation Xrotation Yrotation
                JOINT lIndex2
                {
                  OFFSET 2.54057 -0.884171 1.56538
                  CHANNELS 3 Zrotation Xrotation Yrotation
                  End Site
                  {
                    OFFSET 1.62519 -0.234802 1.16502
                  }
                }
              }
              JOINT lMid1
              {
                OFFSET 8.24714 1.18213 3.41376
                CHANNELS 3 Zrotation Xrotation Yrotation
                JOINT lMid2
                {
                  OFFSET 3.10165 -0.590103 1.0647
                  CHANNELS 3 Zrotation Xrotation Yrotation
                  End Site
                  {
                    OFFSET 2.48547 -0.328903 0.83742
                  }
                }
              }
              JOINT lRing1
              {
                OFFSET 8.82822 0.546677 1.51678
                CHANNELS 3 Zrotation Xrotation Yrotation
                JOINT lRing2
                {
                  OFFSET 2.60934 -0.819778 -0.0198488
                  CHANNELS 3 Zrotation Xrotation Yrotation
                  End Site
                  {
                    OFFSET 2.33842 -0.294052 0.168128
                  }
                }
              }
              JOINT lPinky1
              {
                OFFSET 8.27202 -0.0477905 -0.4584
                CHANNELS 3 Zrotation Xrotation Yrotation
                JOINT lPinky2
                {
                  OFFSET 1.82734 -0.647385 -0.700984
                  CHANNELS 3 Zrotation Xrotation Yrotation
                  End Site
                  {
                    OFFSET 1.69225 -0.51767 -0.607171
                  }
                }
              }
            }
          }
        }
      }
    }
  }
  JOINT rButtock
  {
    OFFSET -8.77824 4.35084 1.2192
    CHANNELS 3 Zrotation Xrotation Yrotation
    JOINT rThigh
    {
      OFFSET 0 -1.70687 -2.19456
      CHANNELS 3 Zrotation Xrotation Yrotation
      JOINT rShin
      {
        OFFSET 0 -36.8199 0.73152
        CHANNELS 3 Zrotation Xrotation Yrotation
        JOINT rFoot
        {
          OFFSET 0.73152 -45.1104 -5.12064
          CHANNELS 3 Zrotation Xrotation Yrotation
          End Site
          {
            OFFSET -1.1221 -3.69964 12.103
          }
        }
      }
    }
  }
  JOINT lButtock
  {
    OFFSET 8.77824 4.35084 1.2192
    CHANNELS 3 Zrotation Xrotation Yrotation
    JOINT lThigh
    {
      OFFSET 0 -1.70687 -2.19456
      CHANNELS 3 Zrotation Xrotation Yrotation
      JOINT lShin
      {
        OFFSET 0 -36.8199 0.73152
        CHANNELS 3 Zrotation Xrotation Yrotation
        JOINT lFoot
        {
          OFFSET -0.73152 -45.1104 -5.12064
          CHANNELS 3 Zrotation Xrotation Yrotation
          End Site
          {
            OFFSET 1.1221 -3.69964 12.103
          }
        }
      }
    }
  }
}
MOTION
Frames:	6
Frame Time:	0.03333
0.0 0.0 0.0 0.0 0.0 0.0 0.0 0.0 0.0 0.0 0.0 0.0 0.0 0.0 0.0 0.0 0.0 0.0 0.0 0.0 0.0 0.0 0.0 0.0 0.0 0.0 0.0 0.0 0.0 0.0 0.0 0.0 0.0 0.0 0.0 0.0 0.0 0.0 0.0 0.0 0.0 0.0 0.0 0.0 0.0 0.0 0.0 0.0 0.0 0.0 0.0 0.0 0.0 0.0 0.0 0.0 0.0 0.0 0.0 0.0 0.0 0.0 0.0 0.0 0.0 0.0 0.0 0.0 0.0 0.0 0.0 0.0 0.0 0.0 0.0 0.0 0.0 0.0 0.0 0.0 0.0 0.0 0.0 0.0 0.0 0.0 0.0 0.0 0.0 0.0 0.0 0.0 0.0 0.0 0.0 0.0 0.0 0.0 0.0 0.0 0.0 0.0 0.0 0.0 0.0 0.0 0.0 0.0 0.0 0.0 0.0 0.0 0.0 0.0 0.0 0.0 0.0 0.0 0.0 0.0 0.0 0.0 0.0 0.0 0.0 0.0 0.0 0.0 0.0 0.0 0.0 0.0
0.0199 54.67809999999999 -0.0068 0.817214 -21.485418 0.773645 -9.166023 7.60571 50.639091 -3.673572 -11.24047 -54.866486 -14.898115 33.755456 -108.771809 33.918805 25.26936 56.876198 -0.004396 -0.0 0.001518 -0.004396 -0.0 0.001518 -13.743776 42.431509 15.569355 19.735087 8.74 55.620304 37.790636 77.981646 -156.240301 158.835452 -30.991587 141.530876 -171.604321 -9.286026 89.948845 169.115765 -26.31677 97.631366 -50.386301 40.826678 40.024411 -164.848847 -11.542318 112.3929 -89.83597 60.702565 81.262617 29.843583 -60.114334 6.738174 -31.709209 -66.108961 -46.283349 -69.351004 82.081411 86.956949 -4.129701 -9.745796 -3.861694 -147.46621 12.755589 -143.938089 152.13526 14.084388 -157.564783 -68.278886 -64.000028 -117.160577 78.225095 -42.612315 -47.178337 161.937624 -66.490519 -178.717693 -176.505279 -20.694927 -88.627714 127.810614 18.044162 -64.43667 148.886431 -12.609936 -120.244249 9.616664 33.047833 -0.968992 -9.417058 -29.555335 3.209435 164.092839 -6.965545 -143.539849 -0.003272 1.855484 -0.582301 156.723427 -32.208455 -175.637441 156.864122 55.542172 150.327379 114.689193 -41.477535 112.350802 0.011443 -0.001387 0.008582 -62.789525 -47.698374 -138.575238 -79.706462 16.301861 -100.243769 58.306823 20.973961 -161.535105 -0.000309 -0.000231 0.000398 30.361157 -25.959153 -81.909031 -89.765758 -19.033681 -176.540868 -46.395081 16.304406 -66.206536
0.0181 54.6848 -0.0112 0.915562 -21.48189 0.749028 -5.01681 6.444162 -81.92594 9.004389 0.883107 77.795431 4.274529 34.214172 135.193339 -26.667513 30.848195 -176.752511 -0.003659 -0.0 0.002521 -0.004154 -0.0 0.000886 -120.448802 60.637596 124.076056 -75.706649 35.061662 56.287478 -25.095637 -39.984206 -141.214256 134.16827 -56.542812 120.243753 -68.482308 37.953685 35.659809 -84.604922 -1.792821 68.251002 0.184365 -0.300436 -0.104525 11.578383 0.148127 -0.542965 -160.097739 -4.901018 142.969684 -167.997931 -19.065932 143.876209 -145.099462 -1.521975 -178.651933 12.152298 33.46441 -5.205836 -86.170686 -50.466427 -84.539985 -75.409119 -53.837644 -76.073646 8.660239 32.586319 -10.123052 -76.245449 -3.68737 -28.580674 -16.316721 42.979547 -99.250963 18.642987 -43.518232 10.908939 173.770147 -11.440071 -89.892127 31.989249 -29.918511 -2.800596 -11.980241 -21.347067 5.063431 -172.648771 -45.694649 -100.892903 -6.532858 -20.414963 2.718198 -3.362938 -0.617514 0.09368 145.118971 0.267872 179.212266 -10.20336 -0.073928 9.004963 12.006629 -23.63237 11.401833 21.052069 -39.031062 22.339248 0.000278 -0.00072 -0.000357 -62.64692 -46.167552 -55.242819 8.922895 75.735471 -118.438273 -22.972634 68.428942 113.101516 -179.912839 75.748699 -0.067178 -143.836039 41.536254 -47.785699 -77.514571 44.807031 47.922894 21.457891 -28.53289 55.6095
0.0055000000000000005 54.689299999999996 -0.0203 0.913836 -21.471311 0.756219 -5.033126 6.4582 -82.107458 8.992146 0.912573 78.008953 -16.455094 29.949239 -86.514364 36.121327 13.742007 37.962427 0.005481 -0.0 -0.002656 -0.000205 0.0 -0.002023 -157.760016 -21.736506 165.398233 -55.648643 -42.678299 -39.485102 -179.732133 4.774549 -93.078217 -11.292588 47.463182 4.938822 74.385102 -48.812369 27.512321 -109.21811 35.357664 75.060034 -108.428774 34.162427 91.743529 8.231453 -3.256438 -6.944422 89.035888 -81.392187 59.759767 -145.230157 36.223003 131.954268 -67.606821 -72.074474 -84.374012 -150.979714 0.10596 176.212097 -125.326613 -28.469451 -123.082136 23.711158 60.32894 6.363534 -0.023234 -0.138696 0.030276 -72.906629 27.25063 0.624047 -74.302418 41.117126 -67.961139 27.383984 1.106444 -6.882672 166.630916 -4.304967 -89.771884 -36.868449 -63.474037 -30.713682 -10.210872 -18.050826 4.564221 164.502748 -20.966193 -110.164312 -68.983033 -80.154324 -40.577126 163.463288 -4.715984 -143.156578 145.122371 1.974395 179.748945 -11.063087 13.968152 7.348046 25.537346 -38.087538 24.598576 -63.418275 85.436485 24.489752 -179.993203 75.749056 -0.006223 142.856923 6.225959 -98.147805 -72.578206 -11.213532 22.020346 130.449164 33.174055 -52.462062 -0.00337 0.000586 -0.001685 29.022061 -27.265471 -180.0 89.797212 -63.492607 0.419626 176.890338 -3.166098 59.009418
-0.0059 54.6926 -0.026699999999999998 0.837564 -21.440586 0.801107 -7.39491 8.531157 0.0 4.600088 -10.794698 -3.37335 -2.324491 18.306623 27.083259 -9.14601 -21.584915 -76.098387 0.003261 0.0 0.000914 -0.0029 0.0 -0.000162 -13.946882 42.750517 15.784058 -90.394238 25.400046 110.162545 -78.793777 10.028436 -128.967323 25.430094 -43.224431 17.848398 76.384382 -49.200802 28.871251 -13.780718 -39.090696 -29.667474 -145.906522 -7.260348 118.948727 -175.119439 -38.722312 116.532539 -125.644518 49.840035 115.274008 -170.237865 -26.301263 144.000239 -145.122492 1.974699 -179.750325 -154.316198 -12.531228 -177.507863 -146.186416 15.332775 -142.709799 1.279924 -2.367059 -2.746157 14.148406 43.061599 -15.996281 -72.210577 -0.451909 -39.162094 -80.279503 42.017101 -61.104155 27.996651 2.819797 -7.693257 93.743386 37.964038 -53.548831 89.939331 -5.068568 -62.879998 156.487673 -26.683188 -122.37215 -13.389711 -2.391072 10.150701 0.570249 1.648485 -0.32218 175.046834 -39.012975 -143.395108 145.11869 0.226598 179.199578 -10.202515 -0.1307 9.013037 112.7823 -40.025315 110.812237 23.013651 -39.540488 25.134134 -179.97416 75.750087 -0.02126 140.622055 6.581218 82.050627 68.192081 1.190717 -53.968981 124.667775 -53.472048 3.779836 -0.005701 -1.6e-05 -0.005701 27.863751 -26.308461 96.87985 86.107778 31.951263 -179.291784 49.718143 -14.472465 114.015691
-0.0435 54.699200000000005 -0.0358 0.846489 -21.41128 0.849829 -9.840829 5.794831 98.282587 -9.00224 -5.692965 -102.567376 -3.59766 37.836092 -177.446982 -2.258639 42.935646 131.970392 -0.000376 -0.0 0.003133 -0.000846 0.0 -0.002313 2.459936 -18.216287 -3.669807 58.310369 5.86613 10.241668 24.311724 -14.88745 95.877278 -22.691719 63.355602 12.421873 -10.205103 9.661431 2.404963 -146.745523 -52.533117 113.201552 2.323803 -3.868404 -1.259192 123.026067 -61.395284 64.89074 -86.295162 60.960298 77.857293 -153.830164 19.957552 138.545278 0.000465 0.063518 0.021279 -154.020879 14.808556 169.796815 -136.040608 -11.443199 -133.394951 -25.245087 -40.363348 -26.990625 -1.831294 -69.733039 16.296753 -100.879706 39.02113 78.669958 25.320283 11.411433 -117.72262 67.726119 -82.877122 77.301794 2.608604 2.554507 -0.457322 162.935039 -70.851403 -113.010993 156.201518 -26.158784 -122.326376 154.566339 -3.369948 -118.989137 -23.903047 -61.333956 -1.400235 27.963459 51.006148 -23.029089 74.841577 72.960704 -92.828096 159.481709 -14.756593 -178.21994 87.577129 -50.206631 85.928868 -60.614186 84.0706 21.806497 0.000856 -0.000611 -0.001101 -62.635024 -46.196767 -55.24138 26.614694 64.587677 11.119851 60.429474 -43.035002 -32.097599 -0.0 0.000115 0.001616 29.11673 -25.088475 -0.0 -95.77353 59.676943 -118.540786 -50.420716 -6.168239 -126.382293
